<svg xmlns="http://www.w3.org/2000/svg" viewBox="0 0 512 512" role="img" aria-labelledby="title desc">
  <title id="title">Silver Bottle Icon</title>
  <desc id="desc">A polished silver bottle monogram icon on a deep blue background.</desc>
  <defs>
    <linearGradient id="bg" x1="64" y1="56" x2="448" y2="456" gradientUnits="userSpaceOnUse">
      <stop offset="0" stop-color="#172033"/>
      <stop offset="1" stop-color="#3b4b66"/>
    </linearGradient>
    <linearGradient id="silver" x1="170" y1="84" x2="342" y2="430" gradientUnits="userSpaceOnUse">
      <stop offset="0" stop-color="#ffffff"/>
      <stop offset="0.23" stop-color="#dfe5ed"/>
      <stop offset="0.52" stop-color="#aeb8c6"/>
      <stop offset="0.78" stop-color="#f7f9fb"/>
      <stop offset="1" stop-color="#909bab"/>
    </linearGradient>
    <linearGradient id="edge" x1="170" y1="256" x2="342" y2="256" gradientUnits="userSpaceOnUse">
      <stop offset="0" stop-color="#8793a2"/>
      <stop offset="0.5" stop-color="#f9fbfd"/>
      <stop offset="1" stop-color="#6f7a89"/>
    </linearGradient>
    <filter id="shadow" x="-20%" y="-20%" width="140%" height="150%">
      <feDropShadow dx="0" dy="18" stdDeviation="18" flood-color="#06101f" flood-opacity="0.38"/>
    </filter>
  </defs>
  <rect width="512" height="512" rx="112" fill="url(#bg)"/>
  <path d="M154 398c0 28 45 50 102 50s102-22 102-50" fill="none" stroke="#101827" stroke-opacity="0.26" stroke-width="20" stroke-linecap="round"/>
  <g filter="url(#shadow)">
    <path d="M220 76h72v54c0 17 9 31 22 42 30 25 49 62 49 103v123c0 44-48 78-107 78s-107-34-107-78V275c0-41 19-78 49-103 13-11 22-25 22-42V76Z" fill="url(#silver)"/>
    <path d="M220 76h72v54c0 17 9 31 22 42 30 25 49 62 49 103v123c0 44-48 78-107 78s-107-34-107-78V275c0-41 19-78 49-103 13-11 22-25 22-42V76Z" fill="none" stroke="url(#edge)" stroke-width="8"/>
    <rect x="211" y="48" width="90" height="48" rx="14" fill="#cfd6df" stroke="#f8fafc" stroke-width="6"/>
    <path d="M233 118h46" stroke="#768293" stroke-width="10" stroke-linecap="round"/>
    <path d="M202 226c11-28 31-47 54-47s43 19 54 47" fill="none" stroke="#f8fafc" stroke-opacity="0.52" stroke-width="12" stroke-linecap="round"/>
    <path d="M197 275v105c0 23 25 42 59 42s59-19 59-42V275" fill="none" stroke="#223047" stroke-opacity="0.18" stroke-width="10" stroke-linecap="round"/>
    <path d="M214 191c-21 20-34 49-34 82v112c0 34 33 60 76 60" fill="none" stroke="#ffffff" stroke-opacity="0.5" stroke-width="14" stroke-linecap="round"/>
  </g>
</svg>
